<?xml version="1.0" encoding="utf-8"?>
<!-- Generator: Adobe Illustrator 23.0.1, SVG Export Plug-In . SVG Version: 6.00 Build 0)  -->
<svg version="1.0" id="Camada_1" xmlns="http://www.w3.org/2000/svg" xmlns:xlink="http://www.w3.org/1999/xlink" x="0px" y="0px"
	 viewBox="0 0 120 30" style="enable-background:new 0 0 120 30;" xml:space="preserve">
<style type="text/css">
	.st0{fill:#FFFFFF;}
	.st1{font-family:'Montserrat-ExtraBold';}
	.st2{font-size:6.32px;}
	.st3{font-family:'Montserrat-Medium';}
	.st4{font-size:3.5111px;}
</style>
<g>
	<path class="st0" d="M8.66,21.87c-0.03-0.14-0.07-0.27-0.11-0.41c-0.06-0.2-0.06-0.2-0.27-0.2c-0.08,0-0.16-0.01-0.24-0.01
		c-0.2,0-0.39,0-0.59,0c-0.08,0.33-0.15,0.64-0.23,0.97c0.29,0.08,0.56,0.16,0.83,0.24c0.07,0.02,0.12,0,0.17-0.05
		c0.14-0.15,0.29-0.3,0.42-0.45C8.66,21.94,8.67,21.9,8.66,21.87z"/>
	<path class="st0" d="M13.79,12.97c0.08-0.02,0.17-0.11,0.2-0.18c0.05-0.1,0.06-0.23,0.08-0.34c-0.01-0.17-0.03-0.34-0.14-0.48
		c-0.13-0.17-0.29-0.16-0.37,0.04c-0.12,0.27-0.1,0.54,0.01,0.81C13.61,12.9,13.68,13,13.79,12.97z"/>
	<path class="st0" d="M21.46,9.63c-0.01-0.48-0.05-0.95-0.08-1.43c-0.03-0.33-0.06-0.67-0.11-1c-0.01-0.1,0.01-0.22-0.12-0.28
		c-0.7-0.31-1.41-0.58-2.14-0.79C18.54,6,18.07,5.87,17.6,5.76c-0.29-0.07-0.58-0.12-0.87-0.17c-0.26-0.05-0.52-0.08-0.79-0.12
		c-0.29-0.04-0.59-0.08-0.88-0.11c-0.25-0.03-0.51-0.05-0.76-0.05c-0.55-0.01-1.1-0.03-1.65-0.01c-0.41,0.01-0.82,0.06-1.23,0.1
		c-0.25,0.02-0.49,0.05-0.74,0.09c-0.28,0.04-0.56,0.09-0.83,0.14C9.52,5.69,9.19,5.75,8.87,5.83c-0.4,0.1-0.8,0.2-1.18,0.34
		C7.01,6.4,6.35,6.66,5.68,6.91C5.64,6.93,5.59,6.99,5.58,7.04C5.55,7.26,5.52,7.48,5.5,7.69c-0.04,0.33-0.08,0.67-0.11,1
		C5.37,9.01,5.35,9.34,5.34,9.66c-0.01,0.47-0.02,0.95-0.02,1.42c0,0.3,0.02,0.59,0.04,0.89c0.02,0.24,0.05,0.47,0.07,0.71
		c0.04,0.39,0.06,0.78,0.12,1.16c0.06,0.4,0.13,0.79,0.22,1.18C5.88,15.5,6,15.97,6.14,16.43c0.22,0.72,0.49,1.42,0.83,2.1
		c0.13,0.25,0.26,0.51,0.39,0.76c0.26-0.18,0.5-0.35,0.74-0.51c-0.01-0.02-0.02-0.04-0.03-0.05c-0.26-0.54-0.54-1.07-0.76-1.63
		c-0.22-0.57-0.38-1.17-0.55-1.76c-0.11-0.4-0.19-0.8-0.27-1.21c-0.06-0.32-0.09-0.64-0.12-0.97c-0.04-0.34-0.1-0.67-0.11-1.01
		c-0.03-0.69-0.04-1.38-0.04-2.07c0-0.37,0.02-0.75,0.04-1.12C6.29,8.57,6.33,8.19,6.38,7.8C6.39,7.71,6.37,7.6,6.49,7.55
		C6.88,7.4,7.27,7.23,7.67,7.12c0.63-0.19,1.27-0.35,1.91-0.5c0.47-0.11,0.96-0.18,1.44-0.27c0.05-0.01,0.11,0,0.18,0
		c-0.02,0.03-0.02,0.05-0.03,0.05c-0.17,0.16-0.34,0.31-0.52,0.47c-0.02,0.02-0.06,0.03-0.09,0.04c-0.26,0.05-0.51,0.09-0.77,0.15
		C9.26,7.18,8.73,7.3,8.21,7.44C7.79,7.56,7.39,7.72,6.98,7.86C6.9,7.89,6.84,7.92,6.84,8.03C6.82,8.27,6.79,8.51,6.77,8.76
		C6.74,9.19,6.71,9.62,6.7,10.05c-0.01,0.37-0.02,0.74,0,1.11c0.04,0.68,0.09,1.36,0.15,2.03c0.04,0.45,0.11,0.89,0.2,1.33
		c0.13,0.58,0.28,1.15,0.46,1.72c0.21,0.7,0.49,1.37,0.85,2.01c0.02,0.04,0.03,0.11,0.02,0.16c-0.01,0.1-0.03,0.19-0.05,0.32
		c0.32,0.01,0.62,0.01,0.92,0.02c0.09,0,0.14-0.03,0.19-0.1c0.15-0.23,0.31-0.45,0.47-0.68c0.02-0.03,0.06-0.07,0.09-0.07
		c0.39,0,0.77-0.06,1.15,0.04c0.18,0.05,0.37,0.12,0.55,0.18c0.07,0.02,0.13,0.04,0.2,0.07c0,0.01,0,0.03,0,0.04
		c-0.08,0.01-0.17,0.03-0.25,0.03c-0.47,0.01-0.93,0.01-1.4,0.02c-0.05,0-0.12,0.04-0.15,0.08c-0.12,0.17-0.21,0.35-0.33,0.53
		c-0.04,0.06-0.05,0.11,0.01,0.17c0.1,0.11,0.21,0.22,0.3,0.34c0.05,0.07,0.11,0.08,0.18,0.06c0.05-0.01,0.1-0.04,0.16-0.05
		c0.37-0.11,0.74-0.33,1.14-0.1c0,0,0.01,0,0.01,0c0.15,0.05,0.31,0.1,0.46,0.16c0,0.02-0.01,0.03-0.01,0.05
		c-0.05,0-0.1,0.01-0.14,0.01c-0.23,0-0.46-0.04-0.68,0c-0.29,0.06-0.56,0.19-0.84,0.29c-0.02,0.01-0.04,0.04-0.05,0.07
		c-0.06,0.2-0.12,0.4-0.18,0.6c0.3,0.14,0.58,0.27,0.88,0.41c0.06-0.06,0.13-0.14,0.2-0.22c0.18-0.2,0.18-0.2,0.07-0.45
		c-0.06-0.14-0.13-0.28-0.21-0.46c0.46,0,0.87,0,1.28,0c0.01-0.02,0.01-0.03,0.02-0.05c-0.09-0.14-0.18-0.28-0.28-0.41
		c-0.02-0.02-0.05-0.03-0.08-0.04c-0.26-0.09-0.52-0.19-0.78-0.28c-0.17-0.06-0.1-0.2-0.12-0.31c-0.02-0.1,0.07-0.09,0.13-0.11
		c0.38-0.09,0.75-0.18,1.13-0.27c0.04-0.01,0.08-0.03,0.14-0.05c-0.5-0.19-0.98-0.36-1.45-0.54c0.15-0.32,0.18-0.35,0.49-0.43
		c0.12-0.03,0.23-0.06,0.35-0.09c0.03-0.01,0.07-0.02,0.1-0.03c0-0.01,0-0.03,0-0.04c-0.06-0.02-0.12-0.05-0.18-0.06
		c-0.13-0.03-0.27-0.06-0.41-0.08c-0.19-0.02-0.24-0.17-0.32-0.3c0.18-0.11,0.34-0.21,0.5-0.31c-0.01-0.01-0.01-0.02-0.02-0.04
		c-0.08-0.01-0.16-0.04-0.24-0.04c-0.33,0.01-0.58-0.12-0.78-0.39c-0.22-0.3-0.48-0.58-0.68-0.89c-0.23-0.37-0.18-0.76,0.1-1.05
		c0.13-0.13,0.29-0.24,0.46-0.33c0.48-0.26,0.99-0.42,1.52-0.54c0.41-0.1,0.83-0.18,1.25-0.26c0.12-0.02,0.17-0.07,0.14-0.19
		c-0.01-0.03-0.01-0.07-0.02-0.1c-0.04-0.24-0.01-0.47,0.11-0.67c0.16-0.28,0.44-0.31,0.62-0.02c0.16,0.27,0.18,0.55,0.15,0.84
		c-0.02,0.17-0.09,0.34-0.23,0.46c-0.1,0.09-0.21,0.13-0.31,0.04c-0.1-0.09-0.2-0.07-0.3-0.02c-0.03,0.01-0.06,0.02-0.1,0.03
		c-0.35,0.12-0.71,0.24-1.02,0.45c-0.35,0.24-0.35,0.56,0,0.8c0,0,0.01,0,0.01,0.01c0.41,0.28,0.87,0.47,1.33,0.65
		c0.81,0.31,1.64,0.6,2.45,0.93c0.98,0.39,1.87,0.92,2.61,1.69c0.01,0.01,0.03,0.02,0.06,0.04c0.33-0.71,0.59-1.44,0.79-2.19
		c0.11-0.39,0.19-0.8,0.28-1.2c0.07-0.33,0.13-0.67,0.18-1.01c0.04-0.31,0.06-0.62,0.08-0.94c0.03-0.44,0.07-0.88,0.07-1.31
		c0.01-0.55-0.01-1.1-0.04-1.65C20.05,8.98,20,8.5,19.97,8.03c-0.01-0.1-0.06-0.14-0.14-0.17c-0.51-0.17-1.02-0.34-1.53-0.51
		c-0.63-0.2-1.27-0.33-1.92-0.43c-0.1-0.02-0.2-0.08-0.28-0.14c-0.13-0.1-0.25-0.21-0.37-0.32c-0.03-0.03-0.06-0.07-0.11-0.13
		c0.06,0,0.09,0,0.11,0c0.39,0.06,0.78,0.12,1.17,0.19c0.38,0.07,0.76,0.15,1.14,0.25c0.76,0.2,1.51,0.44,2.24,0.74
		c0.12,0.05,0.17,0.13,0.18,0.24c0.04,0.44,0.09,0.88,0.11,1.32c0.03,0.7,0.05,1.4,0.04,2.11c-0.01,0.65-0.06,1.3-0.12,1.94
		c-0.04,0.45-0.13,0.9-0.22,1.34c-0.11,0.51-0.23,1.03-0.37,1.53c-0.2,0.71-0.47,1.39-0.78,2.05c-0.45,0.94-1,1.81-1.66,2.6
		c-0.59,0.69-1.24,1.33-1.97,1.87c-0.6,0.45-1.23,0.83-1.89,1.17c-0.11,0.06-0.21,0.07-0.31,0c-0.42-0.24-0.84-0.46-1.25-0.71
		c-0.42-0.27-0.83-0.57-1.24-0.86c-0.12,0.17-0.25,0.35-0.38,0.54c-0.11,0.17-0.11,0.17,0.06,0.3c0.31,0.23,0.63,0.47,0.95,0.69
		c0.58,0.4,1.2,0.74,1.85,1.03c0.13,0.06,0.23,0.05,0.35-0.01c0.59-0.27,1.17-0.58,1.71-0.94c0.62-0.41,1.21-0.86,1.73-1.38
		c0.4-0.4,0.81-0.81,1.17-1.24c0.35-0.43,0.67-0.89,0.97-1.36c0.5-0.76,0.9-1.58,1.21-2.44c0.18-0.5,0.34-1.01,0.49-1.53
		c0.1-0.35,0.17-0.71,0.24-1.07c0.05-0.23,0.09-0.45,0.12-0.68c0.04-0.26,0.08-0.53,0.11-0.79c0.02-0.21,0.03-0.43,0.04-0.64
		c0.02-0.42,0.06-0.84,0.07-1.26C21.47,10.76,21.47,10.19,21.46,9.63z M10.75,17c0.03,0.08,0.17,0.12,0.11,0.24
		c-0.05,0.09-0.08,0.21-0.23,0.21c0.14-0.32,0.14-0.32-0.08-0.45C10.62,17,10.74,16.98,10.75,17z M10.33,16.25
		c0.01,0,0.03-0.01,0.04-0.01c0.06,0.08,0.13,0.15,0.18,0.23c0.01,0.02,0,0.06-0.01,0.08c-0.08,0.06-0.16,0.12-0.24,0.18
		c-0.01-0.01-0.03-0.02-0.04-0.02C10.28,16.56,10.31,16.4,10.33,16.25z M9.8,17.11c0.05,0.05,0.05,0.1,0.01,0.16
		C9.7,17.42,9.6,17.56,9.48,17.7c-0.02,0.03-0.07,0.06-0.09,0.05c-0.15-0.03-0.3-0.06-0.45-0.09c-0.01,0-0.02-0.02-0.03-0.03
		c0-0.02,0.01-0.03,0.01-0.05c0.1,0,0.19,0,0.29,0c0.09,0,0.15-0.02,0.19-0.1c0.01-0.02,0.03-0.04,0.04-0.05
		c0.06-0.12,0.25-0.2,0.09-0.37c-0.09-0.1-0.13-0.26-0.29-0.29c-0.03-0.01-0.06-0.03-0.09-0.05c0.17-0.05,0.34,0,0.44,0.12
		C9.65,16.93,9.72,17.02,9.8,17.11z M17.3,11.1c0.16,0.05,0.31,0.14,0.46,0.22c0,0.02,0,0.04,0,0.06c-0.03,0.03-0.09,0.05-0.1,0.08
		c-0.02,0.05-0.02,0.12,0,0.17c0.03,0.06,0.09,0.1,0.17,0.05c0.08-0.06,0.13-0.02,0.13,0.06C17.98,11.92,18,12.1,18,12.28
		c0,0.06-0.02,0.13-0.02,0.19c-0.01,0.21-0.06,0.26-0.27,0.27c-0.46,0.02-0.93,0.05-1.39,0.07c-0.56,0.02-1.11,0.05-1.67,0.05
		c-0.29,0-0.28-0.01-0.31-0.29c-0.03-0.23-0.06-0.46-0.14-0.68c-0.05-0.14-0.16-0.27-0.27-0.36c-0.15-0.13-0.35-0.09-0.45,0.07
		c-0.08,0.12-0.15,0.28-0.17,0.42c-0.03,0.22-0.01,0.45-0.01,0.7c-0.08-0.01-0.18-0.01-0.28-0.02c-0.49-0.07-0.97-0.14-1.46-0.21
		c-0.09-0.01-0.1-0.06-0.12-0.14c-0.03-0.19-0.05-0.38-0.11-0.56c-0.05-0.17-0.18-0.27-0.28-0.24c-0.1,0.03-0.18,0.18-0.18,0.34
		c0,0.01,0.01,0.01,0.02,0.03c0.03-0.06,0.05-0.12,0.08-0.18c0.08-0.13,0.18-0.13,0.27-0.01c0.16,0.2,0.19,0.65,0.06,0.87
		c-0.1,0.17-0.24,0.17-0.32-0.01c-0.06-0.13-0.14-0.16-0.26-0.18c-0.45-0.07-0.9-0.15-1.35-0.22c-0.02,0-0.05-0.01-0.07-0.04
		c0.52,0.04,1.03,0.07,1.55,0.11c0-0.17-0.1-0.28-0.24-0.29c-0.39-0.04-0.77-0.09-1.16-0.13c-0.03,0-0.05-0.01-0.08-0.02
		c0-0.01,0-0.02,0-0.03c0.08,0,0.17,0,0.25,0c0.32,0,0.64-0.01,0.96,0c0.13,0,0.12-0.07,0.12-0.15c0-0.09,0-0.15-0.13-0.15
		c-0.67,0.01-1.34,0-2.02,0c0-0.01,0-0.02,0-0.03c0.05-0.01,0.1-0.02,0.15-0.02c0.6-0.04,1.2-0.08,1.81-0.13
		c0.22-0.02,0.22-0.01,0.29-0.26c-0.52,0.03-1.04,0.05-1.55,0.08c0-0.01,0-0.02,0-0.04c0.22-0.03,0.45-0.06,0.67-0.09
		c0.35-0.05,0.71-0.1,1.06-0.16c0.11-0.02,0.21-0.07,0.3-0.13c0.21-0.13,0.4-0.29,0.62-0.42c0.25-0.15,0.54-0.2,0.83-0.22
		c0.72-0.05,1.45-0.02,2.17,0.07c0.4,0.05,0.72,0.26,1.05,0.47c0.05,0.03,0.12,0.05,0.19,0.06c0.13,0.01,0.27-0.01,0.29,0.18
		c0,0.02,0.07,0.04,0.12,0.05C16.79,10.98,17.05,11.02,17.3,11.1z M15.86,7.39c0.19,0.16,0.35,0.35,0.52,0.52
		c0.06,0.06,0.06,0.11,0,0.18c-0.85,0.96-1.88,1.54-3.19,1.47c-0.78-0.04-1.47-0.33-2.07-0.81c-0.22-0.18-0.43-0.39-0.63-0.59
		c-0.14-0.14-0.13-0.15,0-0.3c0.53-0.62,1.19-1.06,1.97-1.29c0.3-0.09,0.62-0.12,0.94-0.17c0,0.01,0.01,0.02,0.01,0.03
		C14.34,6.43,15.15,6.78,15.86,7.39z"/>
	<path class="st0" d="M9.68,19.88c-0.13-0.2-0.26-0.4-0.4-0.6c-0.02-0.03-0.07-0.05-0.11-0.05c-0.18,0-0.36,0-0.54,0c0,0,0,0,0,0
		c-0.18,0-0.36,0-0.54,0c-0.07,0-0.11,0.02-0.11,0.1c-0.01,0.28-0.03,0.57-0.04,0.85c0,0.04,0.03,0.1,0.07,0.12
		c0.28,0.14,0.57,0.27,0.85,0.4c0.04,0.02,0.11,0.02,0.14-0.01c0.2-0.15,0.4-0.3,0.6-0.46C9.69,20.15,9.74,19.97,9.68,19.88z"/>
	<path class="st0" d="M10.7,21.46c-0.01-0.05-0.02-0.1-0.04-0.15c-0.04-0.11-0.01-0.26-0.18-0.31c-0.14-0.04-0.28-0.11-0.41-0.17
		c-0.11-0.06-0.21-0.06-0.33-0.02c-0.08,0.03-0.17,0.04-0.24,0.08c-0.05,0.02-0.1,0.07-0.11,0.12c-0.07,0.27-0.13,0.54-0.19,0.81
		c-0.01,0.03,0.01,0.08,0.03,0.1c0.22,0.18,0.45,0.35,0.65,0.5c0.26-0.25,0.51-0.49,0.77-0.73C10.72,21.62,10.73,21.55,10.7,21.46z"
		/>
	<path class="st0" d="M6.42,19.83c-0.02-0.04-0.06-0.09-0.09-0.09c-0.13-0.01-0.25-0.01-0.38-0.01c-0.01,0-0.01,0.01-0.02,0.02
		c-0.12,0.18-0.25,0.36-0.37,0.54c0.07,0.09,0.15,0.18,0.21,0.28c0.16,0.23,0.16,0.23,0.42,0.15c0.2-0.06,0.4-0.14,0.61-0.2
		C6.67,20.27,6.55,20.05,6.42,19.83z"/>
	<path class="st0" d="M6.32,23.46c-0.04,0.13-0.05,0.27-0.08,0.4c0.16,0,0.3,0,0.44,0c0.03,0,0.08-0.03,0.09-0.06
		c0.06-0.18,0.12-0.36,0.19-0.57c-0.19,0.06-0.35,0.1-0.51,0.15C6.4,23.41,6.33,23.43,6.32,23.46z"/>
	<path class="st0" d="M4.71,18.01c-0.05,0.24,0,0.43,0.24,0.53c0.17,0.07,0.28-0.07,0.43-0.1C5.14,18.01,5.07,17.96,4.71,18.01z"/>
	<path class="st0" d="M8.67,24.57c0.1-0.1,0.19-0.2,0.29-0.31c-0.15-0.15-0.27-0.29-0.4-0.43C8.36,24.1,8.4,24.39,8.67,24.57z"/>
	<path class="st0" d="M9.56,22.9c-0.04-0.02-0.07-0.05-0.11-0.09C9.3,22.9,9.3,22.9,9.31,23.06c0,0.05,0.01,0.09,0.02,0.14
		c0.01,0.07,0.27,0.17,0.32,0.12c0.01-0.01,0.02-0.03,0.02-0.04C9.73,23.13,9.74,22.99,9.56,22.9z"/>
	<path class="st0" d="M3.61,21.42c0.07,0.06,0.14,0.12,0.22,0.18c0.02,0.01,0.06,0.01,0.07,0c0.11-0.09,0.22-0.18,0.33-0.28
		C3.89,21.16,3.8,21.18,3.61,21.42z"/>
	<path class="st0" d="M5.3,22.25c0.26,0.03,0.28,0.02,0.37-0.28C5.41,21.96,5.34,22.01,5.3,22.25z"/>
	<path class="st0" d="M5.91,16.99c-0.02-0.16-0.06-0.2-0.24-0.18c-0.03,0.25,0.02,0.3,0.28,0.35C5.94,17.1,5.92,17.05,5.91,16.99z"
		/>
	<path class="st0" d="M15.34,11.24c-0.37-0.21-0.8-0.24-1.2-0.37c0.66,0,1.32,0,2.01,0c-0.09-0.07-0.16-0.13-0.23-0.17
		c-0.26-0.18-0.52-0.37-0.84-0.42c-0.63-0.1-1.27-0.1-1.91-0.05c-0.02,0-0.04,0.02-0.06,0.02c0.12,0.18,0.23,0.36,0.35,0.52
		c0.04,0.05,0.11,0.1,0.18,0.12c0.33,0.07,0.67,0.12,1,0.18C14.89,11.12,15.11,11.18,15.34,11.24z"/>
	<path class="st0" d="M13.02,10.49c-0.11-0.19-0.28-0.27-0.5-0.24c-0.37,0.05-0.71,0.18-0.98,0.45c-0.05,0.05-0.08,0.11-0.11,0.17
		c0.06,0.03,0.13,0.07,0.19,0.08c0.33,0.03,0.65,0.05,0.98,0.06c0.22,0.01,0.44,0,0.67,0c-0.02-0.05-0.02-0.1-0.04-0.14
		C13.16,10.74,13.09,10.61,13.02,10.49z M12.93,10.96c-0.03,0-0.07,0-0.1,0c0,0,0,0.01,0,0.01c-0.08-0.01-0.17-0.02-0.25-0.04
		c-0.07-0.02-0.13-0.07-0.07-0.15c0.08-0.11,0.21-0.1,0.33-0.1c0.09,0,0.16,0.02,0.2,0.11C13.08,10.91,13.07,10.95,12.93,10.96z"/>
	<path class="st0" d="M15.94,11.9c0.04,0.05,0.12,0.09,0.19,0.1c0.31,0.02,0.62,0.04,0.93,0.04c0.11,0,0.23-0.03,0.34-0.07
		c0.12-0.04,0.18-0.15,0.17-0.27c-0.01-0.14-0.11-0.16-0.22-0.17c-0.18-0.01-0.35-0.02-0.59-0.03c-0.19,0.02-0.43,0.03-0.67,0.06
		C15.9,11.58,15.83,11.76,15.94,11.9z"/>
	<path class="st0" d="M17.27,12.33c-0.32,0.01-0.64,0.04-0.95,0.03c-0.28-0.01-0.44,0.11-0.6,0.36c0.64-0.04,1.24-0.08,1.85-0.12
		C17.52,12.36,17.47,12.32,17.27,12.33z"/>
	<path class="st0" d="M15.44,11.75c0.13,0,0.21-0.07,0.29-0.19c-0.45-0.13-0.88-0.23-1.36-0.2c0.12,0.19,0.22,0.36,0.44,0.38
		C15.02,11.75,15.23,11.74,15.44,11.75z"/>
	<path class="st0" d="M14.71,12.54c0,0.01,0,0.02-0.01,0.05c0.53,0.01,0.53,0.01,0.91-0.35c-0.14-0.01-0.26-0.03-0.39-0.04
		C14.84,12.17,14.83,12.18,14.71,12.54z"/>
	<path class="st0" d="M11.2,12.5c0.04-0.1,0.05-0.21,0.08-0.31c-0.02-0.1-0.03-0.2-0.07-0.29c-0.04-0.1-0.13-0.11-0.18-0.03
		c-0.09,0.14-0.09,0.5,0,0.64C11.09,12.6,11.16,12.6,11.2,12.5z"/>
	<path class="st0" d="M17.8,12.47c0.02,0,0.05-0.03,0.06-0.06c0.02-0.09,0.03-0.19,0.05-0.31c-0.12,0.05-0.2,0.08-0.3,0.12
		c0.04,0.08,0.07,0.15,0.11,0.21C17.73,12.45,17.77,12.47,17.8,12.47z"/>
	<path class="st0" d="M12.73,7.55c-0.2,0.31-0.13,0.76,0.15,1.02c0.27,0.25,0.71,0.27,1,0.04c0.29-0.23,0.39-0.68,0.21-1.01
		c-0.17,0.24-0.36,0.31-0.53,0.18c-0.06-0.05-0.11-0.12-0.14-0.19c-0.05-0.15,0.04-0.26,0.15-0.36C13.31,7.11,12.91,7.27,12.73,7.55
		z"/>
	<path class="st0" d="M15.91,8c-0.31-0.4-1.24-0.99-1.58-1c0.56,0.68,0.54,1.35-0.06,2.02C14.77,8.92,15.61,8.39,15.91,8z"/>
	<path class="st0" d="M12.5,6.98c-0.62,0.2-1.13,0.52-1.55,0.98c-0.02,0.02-0.01,0.08,0.01,0.1c0.08,0.08,0.17,0.16,0.25,0.24
		c0.39,0.33,0.84,0.58,1.35,0.75C11.92,8.37,11.93,7.69,12.5,6.98z"/>
</g>
<text transform="matrix(1 0 0 0.92 25.1802 13.0197)" class="st0 st1 st2">S.I.C.V.A</text>
<text id="Sistema_Integrado_de__Alerta_e_Sinistralidade_Rodoviária" transform="matrix(1 0 0 0.92 25.0962 16.9806)"><tspan x="0" y="0" class="st0 st3 st4">Sistema Integrado de Controle </tspan><tspan x="0" y="3.43" class="st0 st3 st4">de Veículos e Alerta Rodoviária</tspan></text>
</svg>
